<?xml version="1.0" encoding="UTF-8"?><svg id="Content" xmlns="http://www.w3.org/2000/svg" viewBox="0 0 1024 1024"><defs><style>.cls-1{fill:#e1e2e1;}.cls-2{fill:#62757f;}</style></defs><circle class="cls-2" cx="512" cy="512" r="512"/><path class="cls-1" d="M653.5,163.5c33.66,12.67,65.5,31.67,95.5,57l-78,93c-20.67-16-41-28-61-36s-41.34-12-64-12c-46.67,0-83.5,19.67-110.5,59-27,39.34-40.5,100-40.5,182s13.5,140.5,40.5,179.5,64.5,58.5,112.5,58.5c25.33,0,48.33-4.83,69-14.5,20.66-9.66,43-23.5,67-41.5l73,94c-26,26-57.5,47.34-94.5,64s-77.84,25-122.5,25c-64,0-119.67-14-167-42-47.34-28-84.17-69.5-110.5-124.5-26.34-55-39.5-121.16-39.5-198.5s13.5-140.33,40.5-195c27-54.66,64.33-96.16,112-124.5,47.66-28.33,101.83-42.5,162.5-42.5,43.33,0,81.83,6.34,115.5,19Z"/></svg>